{"title":"3 ( Moonu ) - PDVD -VoB- Tamil Movie","uid":7156542,"size":643039935,"categoryP":"video","categoryS":"movies","magnet":"?xt=urn:btih:6f1653b1582a168828d205a6da2e26db7074ef46&amp;dn=3+%28+Moonu+%29+-+PDVD+-VoB-+Tamil+Movie&amp;tr=udp%3A%2F%2Ftracker.openbittorrent.com%3A80&amp;tr=udp%3A%2F%2Fopen.demonii.com%3A1337&amp;tr=udp%3A%2F%2Ftracker.coppersurfer.tk%3A6969&amp;tr=udp%3A%2F%2Fexodus.desync.com%3A6969","seeders":1,"leechers":0,"uploader":"BLOVES","files":9,"time":1333471668,"description":"ID : 224 (0xE0) \nFormat : MPEG Video \nFormat version : Version 2 \nFormat settings, BVOP : Yes \nFormat settings, Matrix : Custom \nDuration : 2h 25mn \nBit rate mode : Variable \nBit rate : 483 Kbps \nMaximum bit rate : 450 Kbps \nWidth : 352 pixels \nHeight : 240 pixels \nDisplay aspect ratio : 3:2 \nFrame rate : 29.970 fps \nStandard : NTSC \nColor space : YUV \nBit depth : 8 bits \nScan type : Progressive \nCompression mode : Lossy \nBits/(Pixel*Frame) : 0.191 \nStream size : 501 MiB (82%) \nWriting library : TMPGEnc XPress / 4.2.3.193 4.2.3.193 \n\nAudio \nID : 192 (0xC0) \nFormat : MPEG Audio \nFormat version : Version 1 \nFormat profile : Layer 2 \nDuration : 2h 25mn \nBit rate mode : Constant \nBit rate : 96.0 Kbps \nChannel(s) : 2 channels \nSampling rate : 48.0 KHz \nCompression mode : Lossy \nStream size : 99.7 MiB (16%)\n","torrent":{"xt":"urn:btih:6f1653b1582a168828d205a6da2e26db7074ef46","amp;dn":"3+%28+Moonu+%29+-+PDVD+-VoB-+Tamil+Movie","amp;tr":["udp%3A%2F%2Ftracker.openbittorrent.com%3A80","udp%3A%2F%2Fopen.demonii.com%3A1337","udp%3A%2F%2Ftracker.coppersurfer.tk%3A6969","udp%3A%2F%2Fexodus.desync.com%3A6969"],"infoHash":"6f1653b1582a168828d205a6da2e26db7074ef46","infoHashBuffer":{"type":"Buffer","data":[111,22,83,177,88,42,22,136,40,210,5,166,218,46,38,219,112,116,239,70]},"announce":[],"urlList":[]}}